HIERARCHY
ROOT Hips
{
  OFFSET 0.0574927 36.779 -0.12591
  CHANNELS 6 Xposition Yposition Zposition Zrotation Xrotation Yrotation
  JOINT LeftHip
  {
    OFFSET 3.42547 0.212272 -0.0227438
    CHANNELS 6 Xposition Yposition Zposition Zrotation Xrotation Yrotation
    JOINT LeftKnee
    {
      OFFSET -0.018548 -18.3322 -2.14959
      CHANNELS 6 Xposition Yposition Zposition Zrotation Xrotation Yrotation
      JOINT LeftAnkle
      {
        OFFSET 0.00758781 -15.5402 -0.604396
        CHANNELS 6 Xposition Yposition Zposition Zrotation Xrotation Yrotation
        End Site
        {
          OFFSET 0.0411211 -2.84002 4.63778
        }
      }
    }
  }
  JOINT RightHip
  {
    OFFSET -3.43008 0.00898057 0.117739
    CHANNELS 6 Xposition Yposition Zposition Zrotation Xrotation Yrotation
    JOINT RightKnee
    {
      OFFSET -0.0192258 -18.3134 -2.1483
      CHANNELS 6 Xposition Yposition Zposition Zrotation Xrotation Yrotation
      JOINT RightAnkle
      {
        OFFSET -0.0180807 -15.5437 -0.617617
        CHANNELS 6 Xposition Yposition Zposition Zrotation Xrotation Yrotation
        End Site
        {
          OFFSET 0.0408474 -2.84002 4.63778
        }
      }
    }
  }
  JOINT Chest
  {
    OFFSET -0.246168 8.80688 0.14614
    CHANNELS 6 Xposition Yposition Zposition Zrotation Xrotation Yrotation
    JOINT LeftCollar
    {
      OFFSET 1.03853 10.4162 -0.708444
      CHANNELS 6 Xposition Yposition Zposition Zrotation Xrotation Yrotation
      JOINT LeftShoulder
      {
        OFFSET 5.75456 -0.229632 -1.69265
        CHANNELS 6 Xposition Yposition Zposition Zrotation Xrotation Yrotation
        JOINT LeftElbow
        {
          OFFSET 0.0005795 -12.08 0.000458036
          CHANNELS 6 Xposition Yposition Zposition Zrotation Xrotation Yrotation
          JOINT LeftWrist
          {
            OFFSET 0 -9.81999 -4.47965e-005
            CHANNELS 6 Xposition Yposition Zposition Zrotation Xrotation Yrotation
            End Site
            {
              OFFSET 0 -7.36998 0
            }
          }
        }
      }
    }
    JOINT RightCollar
    {
      OFFSET -1.08147 10.4162 -0.708445
      CHANNELS 6 Xposition Yposition Zposition Zrotation Xrotation Yrotation
      JOINT RightShoulder
      {
        OFFSET -6.03355 -0.234744 -1.69264
        CHANNELS 6 Xposition Yposition Zposition Zrotation Xrotation Yrotation
        JOINT RightElbow
        {
          OFFSET -0.000519053 -11.08 0.000365468
          CHANNELS 6 Xposition Yposition Zposition Zrotation Xrotation Yrotation
          JOINT RightWrist
          {
            OFFSET 1.34151e-005 -9.82 -7.34184e-005
            CHANNELS 6 Xposition Yposition Zposition Zrotation Xrotation Yrotation
            End Site
            {
              OFFSET 0 -7.14 0
            }
          }
        }
      }
    }
    JOINT Neck
    {
      OFFSET -0.0130101 10.4116 -1.49605
      CHANNELS 6 Xposition Yposition Zposition Zrotation Xrotation Yrotation
      JOINT Head
      {
        OFFSET 0 5.18999 0
        CHANNELS 6 Xposition Yposition Zposition Zrotation Xrotation Yrotation
        End Site
        {
          OFFSET 0 4.14001 0
        }
      }
    }
  }
}
MOTION
Frames:	4
Frame Time:	0.0333333
4.2664 33.5836 2.08581 -9.57776 -2.6207 -32.9772 3.42547 0.212272 -0.0227447 16.2079 -19.0215 26.5316 -0.0185492 -18.3322 -2.14959 -6.19302 64.7314 7.58414 0.00758641 -15.5403 -0.604395 10.2066 -30.3364 -0.932729 -3.43008 0.00898082 0.117739 -7.12899 -69.4957 -11.8873 -0.0192289 -18.3134 -2.1483 167.179 71.1041 -166.729 -0.0180811 -15.5437 -0.617614 7.37868 -9.2521 13.9008 -0.246168 8.80688 0.14614 6.24356 30.4503 -2.43693 1.03853 10.4162 -0.708444 7.83348 -8.18052 -2.21599 5.75456 -0.229629 -1.69265 -176.134 -86.5879 116.881 0.000286229 -12.08 -0.000374276 155.227 -69.4559 146.15 1.3466e-005 -9.81999 -1.31814e-005 20.6411 -3.9999 -59.8076 -1.08147 10.4162 -0.708444 -15.4451 -5.75732 -8.91657 -6.03355 -0.234739 -1.69265 -91.4896 -27.9957 -77.3315 0.000302546 -11.08 -0.000439393 -13.1848 -58.5066 -6.78181 5.56969e-006 -9.81999 3.85278e-005 -14.1027 1.95801 17.7174 -0.0130102 10.4116 -1.49605 10.7411 -33.2594 9.44814 -7.49763e-007 5.18999 -1.19569e-006 -3.71672 -0.0972784 9.54227 
3.99211 33.4745 1.87333 -9.08455 0.635627 -31.113 3.42547 0.212273 -0.0227447 18.0804 -22.2713 26.4731 -0.0185487 -18.3322 -2.14959 -6.16949 64.6888 7.63864 0.00758599 -15.5402 -0.604397 10.6833 -32.1309 -1.26917 -3.43008 0.00898248 0.11774 1.03519 -69.6771 -1.37546 -0.0192223 -18.3134 -2.1483 161.605 78.0107 -160.963 -0.0180813 -15.5437 -0.617618 11.0089 -7.07798 15.7497 -0.246169 8.80687 0.146139 8.26453 29.3935 -2.72834 1.03853 10.4162 -0.708444 8.83322 -10.6356 -0.582232 5.75456 -0.229633 -1.69265 -146.801 -80.9455 152.547 0.000399798 -12.08 -0.000219846 131.887 -78.2412 123.554 9.87512e-006 -9.82 -1.43055e-006 16.3647 -3.92487 -57.5946 -1.08147 10.4162 -0.708445 -17.3641 -8.01058 -10.1242 -6.03355 -0.23474 -1.69264 -96.8223 -25.065 -72.1693 0.000324767 -11.08 -0.000437312 -5.45247 -33.7344 -1.31773 1.10174e-005 -9.81999 -4.72476e-005 -16.3858 4.64771 12.9488 -0.0130104 10.4116 -1.49605 11.489 -34.4954 10.275 -3.89264e-007 5.18999 -1.58362e-007 -3.77193 0.0791194 9.75196 
3.67117 33.3444 1.75716 -9.15162 1.16466 -29.409 3.42547 0.21227 -0.0227437 18.9393 -22.7817 26.1807 -0.0185482 -18.3322 -2.14959 -6.1452 64.6362 7.66056 0.00758679 -15.5402 -0.604398 10.8347 -33.7115 -2.22867 -3.43007 0.00898321 0.117738 5.29447 -65.7299 6.1196 -0.0192262 -18.3134 -2.1483 135.087 85.2896 -134.323 -0.0180804 -15.5437 -0.617616 13.9945 -5.26805 16.2326 -0.24617 8.80688 0.146139 8.63671 30.1986 -3.62758 1.03853 10.4162 -0.708446 9.9276 -10.432 -0.245277 5.75455 -0.229632 -1.69265 -157.28 -73.7353 146.047 0.00042579 -12.08 3.69487e-005 70.1927 -80.7466 62.6074 1.61629e-005 -9.81999 2.23263e-005 12.2343 -4.01284 -55.3948 -1.08147 10.4162 -0.708446 -18.1553 -7.46146 -11.08 -6.03354 -0.234739 -1.69265 -99.7238 -24.0151 -72.8009 0.000311173 -11.08 -0.000476049 -2.9819 -19.9228 -0.328722 8.67519e-006 -9.81999 -3.39815e-005 -17.8657 6.16084 10.7749 -0.0130098 10.4116 -1.49605 13.1647 -35.0697 10.5963 -8.30091e-007 5.18999 -1.582e-006 -3.73328 -1.03086 10.1563 
3.31637 33.2608 1.85325 -8.23842 -1.08009 -28.3823 3.42547 0.212272 -0.0227447 17.6334 -20.936 25.931 -0.0185491 -18.3322 -2.14959 -6.1213 64.5592 7.59017 0.00758742 -15.5403 -0.604387 10.243 -33.9601 -3.86326 -3.43008 0.00898135 0.11774 0.758111 -58.7946 4.47491 -0.0192258 -18.3134 -2.1483 27.5023 83.8678 -26.928 -0.0180794 -15.5437 -0.617613 12.5644 -2.29915 14.4641 -0.246169 8.80689 0.14614 6.37053 31.3035 -4.08605 1.03853 10.4162 -0.708446 10.0688 -8.34114 -1.21361 5.75455 -0.22963 -1.69264 -162.777 -70.5487 138.199 0.000397721 -12.08 0.000114627 46.4408 -78.1075 39.2002 1.38256e-005 -9.82 4.96939e-005 10.7591 -4.08547 -54.397 -1.08147 10.4162 -0.708448 -17.6906 -5.11388 -11.2273 -6.03354 -0.234738 -1.69265 -97.1344 -25.0555 -77.3512 0.000298202 -11.08 -0.000487899 -3.7565 -24.5967 -0.577006 1.76065e-005 -9.81999 -5.97736e-005 -18.4154 5.41323 13.0276 -0.0130098 10.4116 -1.49605 13.2564 -34.9908 9.63709 2.21569e-007 5.18999 1.96427e-007 -3.68642 -1.15569 10.1388 
